<svg width="103" height="32" viewBox="0 0 103 32" fill="none" xmlns="http://www.w3.org/2000/svg">
<path d="M29.5261 22.6799C29.3645 22.2899 29.2131 21.8799 29.0515 21.5299L28.3042 19.8599L28.2739 19.8299C26.0524 15.0299 23.6793 10.1499 21.1649 5.34994L21.0639 5.14994C20.8115 4.67994 20.559 4.15994 20.2965 3.67994C19.9734 3.10994 19.6603 2.49994 19.1453 1.91994C18.6433 1.31308 18.0115 0.824133 17.2956 0.488399C16.5796 0.152666 15.7973 -0.0214844 15.0051 -0.0214844C14.2129 -0.0214844 13.4306 0.152666 12.7147 0.488399C11.9987 0.824133 11.3669 1.31308 10.8649 1.91994C10.3903 2.49994 10.0369 3.10994 9.71374 3.67994C9.46129 4.19994 9.20884 4.70994 8.94629 5.17994L8.84531 5.37994C6.37129 10.1799 3.95786 15.0599 1.73629 19.8599L1.6757 19.9199C1.45355 20.4399 1.191 20.9799 0.938547 21.5599C0.776979 21.9099 0.61541 22.2899 0.453841 22.7099C0.017639 23.8097 -0.121654 25.0031 0.0496898 26.1724C0.221034 27.3418 0.697101 28.4467 1.43097 29.3784C2.16484 30.31 3.13119 31.0362 4.23477 31.4854C5.33836 31.9346 6.54109 32.0912 7.72443 31.9399C8.85891 31.7921 9.95132 31.4178 10.9356 30.8399C12.2484 30.1099 13.5106 29.0499 14.9243 27.5199C16.3381 29.0499 17.6306 30.1099 18.9131 30.8499C20.1463 31.5668 21.5429 31.9624 22.9725 31.9999C24.6279 32.0068 26.2299 31.4202 27.4827 30.3487C28.7356 29.2771 29.5546 27.7928 29.7886 26.1699C30.0591 25.0037 29.9676 23.7838 29.5261 22.6699V22.6799ZM15.0253 24.3399C13.2884 22.1399 12.1575 20.1199 11.7737 18.3899C11.6148 17.7489 11.5805 17.0837 11.6728 16.4299C11.7434 15.9199 11.9353 15.4699 12.1979 15.0899C12.8037 14.2199 13.864 13.6799 15.0253 13.6799C15.5768 13.6633 16.1238 13.7824 16.6173 14.0268C17.1108 14.2711 17.5353 14.633 17.8528 15.0799C18.1153 15.4799 18.3072 15.9199 18.3678 16.4299C18.4687 17.0099 18.4284 17.6799 18.2668 18.3899C17.8831 20.0899 16.7521 22.1299 15.0253 24.3399ZM27.8902 25.8199C27.7755 26.6439 27.4447 27.4237 26.9309 28.0816C26.4171 28.7396 25.7382 29.2527 24.9618 29.5699C24.1943 29.8899 23.3461 29.9799 22.5181 29.8899C21.7102 29.7899 20.9024 29.5299 20.0743 29.0499C18.6995 28.2084 17.4632 27.1629 16.4087 25.9499C18.5293 23.3499 19.8118 20.9799 20.2965 18.8699C20.5287 17.8699 20.559 16.9699 20.4581 16.1399C20.332 15.3532 20.0357 14.6028 19.5896 13.9399C19.0803 13.2212 18.4004 12.6374 17.6098 12.2398C16.8192 11.8423 15.9421 11.6431 15.0556 11.6599C13.1875 11.6599 11.5213 12.5199 10.5115 13.9299C10.0569 14.5911 9.76313 15.3475 9.65316 16.1399C9.52188 16.9799 9.55217 17.9099 9.81472 18.8699C10.2994 20.9799 11.6122 23.3799 13.7025 25.9699C12.6659 27.2061 11.4267 28.2608 10.0369 29.0899C9.19874 29.5699 8.401 29.8199 7.59315 29.9199C6.33684 30.0793 5.06779 29.7412 4.06183 28.9791C3.05588 28.2169 2.39433 27.0924 2.221 25.8499C2.12002 25.0499 2.1907 24.2499 2.51384 23.3499C2.61482 23.0299 2.76629 22.7099 2.92786 22.3299C3.15002 21.8099 3.41257 21.2699 3.66502 20.7299L3.70541 20.6599C5.88659 15.8899 8.26972 11.0199 10.7437 6.24994L10.8447 6.04994C11.0972 5.56994 11.3496 5.05994 11.6122 4.57994C11.8747 4.06994 12.1575 3.57994 12.521 3.17994C12.8357 2.80797 13.2289 2.50882 13.6729 2.30356C14.1169 2.09831 14.6009 1.99193 15.0909 1.99193C15.581 1.99193 16.065 2.09831 16.509 2.30356C16.953 2.50882 17.3462 2.80797 17.6609 3.17994C18.0143 3.57994 18.3072 4.06994 18.5697 4.57994C18.8222 5.05994 19.0746 5.57994 19.3372 6.04994L19.4382 6.24994C21.9021 11.0199 24.2852 15.8899 26.5068 20.6599L26.5371 20.6899C26.7996 21.2099 27.0218 21.7899 27.2742 22.2899C27.4358 22.6799 27.5974 22.9899 27.6984 23.3199C27.8902 24.2199 27.9912 25.0199 27.8902 25.8199V25.8199ZM41.9467 24.1199C41.1858 24.131 40.4321 23.9722 39.7416 23.6554C39.0511 23.3386 38.4415 22.8719 37.958 22.2899C36.8715 21.0499 36.2948 19.451 36.3423 17.8099C36.3256 16.1332 36.9209 14.5068 38.0185 13.2299C38.5263 12.6406 39.1583 12.1686 39.8701 11.8472C40.582 11.5259 41.3563 11.3629 42.1385 11.3699C42.8746 11.35 43.6037 11.5157 44.2573 11.8516C44.9109 12.1875 45.4675 12.6824 45.8748 13.2899L45.9758 11.7199H48.9244V23.7999H45.9657L45.8647 22.0399C45.4448 22.6886 44.8644 23.2202 44.1787 23.5842C43.493 23.9483 42.7246 24.1327 41.9467 24.1199V24.1199ZM42.7141 21.2399C43.2998 21.2399 43.8148 21.0799 44.2995 20.7899C44.7438 20.4699 45.1074 20.0499 45.3901 19.5399C45.6426 19.0299 45.7738 18.4199 45.7738 17.7399C45.8132 17.1493 45.6971 16.5587 45.4369 16.0259C45.1767 15.493 44.7813 15.0361 44.2894 14.6999C43.8168 14.4083 43.271 14.2537 42.7141 14.2537C42.1572 14.2537 41.6115 14.4083 41.1388 14.6999C40.6945 15.0199 40.331 15.4399 40.0483 15.9499C39.7812 16.5124 39.6498 17.1286 39.6645 17.7499C39.6252 18.3405 39.7412 18.9312 40.0014 19.464C40.2616 19.9969 40.657 20.4538 41.1489 20.7899C41.6235 21.0799 42.1385 21.2399 42.7141 21.2399ZM53.9734 8.45994C53.9734 8.80994 53.9129 9.12995 53.7513 9.38995C53.5897 9.63995 53.3676 9.86994 53.0747 10.0299C52.7819 10.1899 52.4688 10.2499 52.1457 10.2499C51.8226 10.2499 51.4994 10.1899 51.2066 10.0299C50.9296 9.87726 50.6967 9.65694 50.53 9.38995C50.3736 9.10508 50.2969 8.78401 50.3079 8.45994C50.3079 8.09994 50.3785 7.77994 50.53 7.52994C50.6916 7.22994 50.9238 7.04994 51.2066 6.88994C51.4994 6.72994 51.8125 6.65994 52.1457 6.65994C52.4671 6.65261 52.785 6.728 53.0682 6.87874C53.3514 7.02948 53.5902 7.25042 53.7614 7.51994C53.9083 7.81149 53.9811 8.13418 53.9734 8.45994V8.45994ZM50.5401 23.7599V11.6999H53.7513V23.7799H50.53L50.5401 23.7599ZM62.3346 14.8599V14.8999C62.1832 14.8299 61.9812 14.7999 61.8297 14.7699C61.6278 14.7299 61.4662 14.7299 61.2743 14.7299C60.3756 14.7299 59.699 14.9899 59.2547 15.5299C58.77 16.0799 58.5479 16.8499 58.5479 17.8399V23.7699H55.3266V11.6899H58.2853L58.3863 13.5199C58.7094 12.8799 59.0932 12.3999 59.6384 12.0399C60.1808 11.6902 60.8194 11.5155 61.4662 11.5399C61.6984 11.5399 61.9206 11.5599 62.1125 11.5999C62.2134 11.6299 62.274 11.6299 62.3346 11.6599V14.8599V14.8599ZM63.6272 23.7599V6.73994H66.8384V13.2399C67.2928 12.6599 67.8078 12.2099 68.454 11.8599C69.4772 11.3632 70.6395 11.2223 71.7534 11.4599C72.8673 11.6976 73.8679 12.3 74.5936 13.1699C75.6825 14.4126 76.2593 16.0154 76.2093 17.6599C76.226 19.3367 75.6307 20.9631 74.5331 22.2399C74.0253 22.8293 73.3933 23.3013 72.6815 23.6227C71.9696 23.944 71.1953 24.1069 70.4131 24.0999C69.677 24.1199 68.9479 23.9541 68.2943 23.6183C67.6407 23.2824 67.0841 22.7874 66.6768 22.1799L66.5758 23.7499L63.6272 23.7799V23.7599ZM69.8375 21.2399C70.4131 21.2399 70.9281 21.0799 71.4128 20.7899C71.8571 20.4699 72.2206 20.0499 72.5034 19.5399C72.7659 19.0299 72.8871 18.4199 72.8871 17.7399C72.8871 17.0699 72.7659 16.4599 72.5034 15.9499C72.2382 15.4582 71.8656 15.0312 71.4128 14.6999C70.9401 14.4083 70.3944 14.2537 69.8375 14.2537C69.2806 14.2537 68.7348 14.4083 68.2622 14.6999C67.8078 15.0199 67.4543 15.4399 67.1615 15.9499C66.8945 16.5124 66.7631 17.1286 66.7778 17.7499C66.7384 18.3405 66.8545 18.9312 67.1147 19.464C67.3749 19.9969 67.7703 20.4538 68.2622 20.7899C68.7368 21.0799 69.2518 21.2399 69.8375 21.2399ZM77.4211 23.7699V11.6899H80.3798L80.4808 13.2599C80.8526 12.6581 81.38 12.1656 82.0085 11.8333C82.637 11.501 83.3437 11.3411 84.0555 11.3699C84.8695 11.356 85.6696 11.5801 86.3557 12.0141C87.0418 12.448 87.5835 13.0727 87.913 13.8099C88.2664 14.5699 88.4583 15.5099 88.4583 16.5599V23.7999H85.237V16.9799C85.237 16.1399 85.0451 15.4799 84.6614 14.9899C84.2777 14.5099 83.7526 14.2499 83.0861 14.2499C82.6014 14.2499 82.1773 14.3499 81.8036 14.5699C81.4502 14.7999 81.1574 15.0899 80.9352 15.4999C80.7106 15.9144 80.5992 16.3798 80.6121 16.8499V23.7699H77.4211V23.7699ZM90.0638 23.7699V6.72994H93.2851V13.2299C93.7214 12.6467 94.289 12.1722 94.9429 11.8441C95.5967 11.5161 96.3187 11.3434 97.0517 11.3399C97.8126 11.3289 98.5663 11.4877 99.2568 11.8045C99.9473 12.1213 100.557 12.588 101.04 13.1699C102.122 14.4125 102.694 16.0105 102.646 17.6499C102.664 19.3269 102.068 20.9536 100.97 22.2299C100.462 22.8193 99.83 23.2913 99.1181 23.6127C98.4063 23.934 97.632 24.0969 96.8497 24.0899C96.1136 24.1099 95.3845 23.9441 94.7309 23.6083C94.0773 23.2724 93.5207 22.7774 93.1134 22.1699L93.0226 23.7399L90.0638 23.7699V23.7699ZM96.3044 21.2399C96.8901 21.2399 97.4051 21.0799 97.8797 20.7899C98.3341 20.4699 98.6876 20.0499 98.9804 19.5399C99.2329 19.0299 99.3641 18.4199 99.3641 17.7399C99.4035 17.1493 99.2874 16.5587 99.0272 16.0259C98.767 15.493 98.3716 15.0361 97.8797 14.6999C97.4071 14.4083 96.8613 14.2537 96.3044 14.2537C95.7475 14.2537 95.2018 14.4083 94.7291 14.6999C94.2848 15.0199 93.9213 15.4399 93.6386 15.9499C93.3567 16.5074 93.2245 17.1273 93.2548 17.7499C93.2155 18.3405 93.3315 18.9312 93.5917 19.464C93.8519 19.9969 94.2473 20.4538 94.7392 20.7899C95.2138 21.0799 95.6986 21.2399 96.3044 21.2399Z" fill="#FF385C"/>
</svg>
