<svg width="98" height="34" viewBox="0 0 98 34" fill="none" xmlns="http://www.w3.org/2000/svg">
<path fill-rule="evenodd" clip-rule="evenodd" d="M86.3759 15.8418L80.1387 26.6761L74.8172 26.6973L86.3759 6.30476L97.8914 26.6973H92.4856L86.3759 15.8407V15.8418ZM69.581 21.9809H75.5411L72.7739 26.6973H65.0056L65.0266 20.9545V6.43014H69.6031L69.5821 21.9809H69.581ZM53.235 6.4312C58.918 6.45245 63.5156 10.9787 63.4945 16.5738C63.4734 22.1488 58.8758 26.6761 53.1918 26.6761C47.53 26.6548 42.9324 22.1286 42.9324 16.5324C42.9535 10.9574 47.551 6.4312 53.235 6.4312ZM53.214 21.9607C56.2572 21.9607 58.7041 19.5499 58.7041 16.5738C58.7262 13.5988 56.2572 11.1668 53.235 11.1668C50.2118 11.1455 47.7428 13.5776 47.7428 16.5536C47.7217 19.5286 50.1907 21.9607 53.2129 21.9607H53.214ZM34.4612 14.9641C34.398 14.1248 34.184 13.0144 33.8648 11.9466C33.2078 9.74102 32.0656 7.71333 30.5233 6.0147C29.714 5.13495 28.7993 4.31682 27.4357 3.35314C26.3963 2.83591 25.3743 2.28381 24.3714 1.69776C23.7117 1.32057 22.9235 0.858386 21.8814 0.523699C20.6456 0.2296 19.3825 0.0682633 18.1131 0.042386C16.8802 -0.000113989 15.6441 0.106136 14.4523 0.335636C13.1962 0.544949 12.153 0.879636 10.7694 1.21539C7.63975 2.57751 5.21399 4.63132 3.12753 7.35664C-4.15186 17.6044 2.42573 31.9609 14.5798 33.6578C16.5809 33.9308 18.582 33.8256 20.4756 33.3858L21.8171 33.0298C21.8592 33.0086 21.9235 32.9873 21.9657 32.9873L23.4989 32.4008C23.5832 32.3583 23.6475 32.3371 23.7328 32.2956L24.3714 32.0024C25.5966 31.3927 26.7468 30.6403 27.7982 29.7605C26.8411 30.6374 25.8002 31.4164 24.6907 32.0863L24.7539 32.1288C24.9678 32.0651 25.1586 32.0024 25.3714 31.9609C25.3714 31.9609 25.3714 32.2956 25.3293 32.2329C24.9889 32.4848 25.5211 32.2542 26.2018 31.8972C26.8836 31.5413 27.5432 31.1003 28.1386 30.5978C29.0122 29.8646 29.7783 29.0678 30.8636 27.7694C31.9701 25.8197 33.3547 24.1218 33.9933 21.8374C34.2062 21.2297 34.3969 20.5178 34.5255 19.7836C34.6519 19.0505 34.7383 18.2961 34.7383 17.5205C34.7173 16.7449 34.6319 15.948 34.4612 14.9641ZM18.7095 32.1915C22.4346 31.604 25.5632 29.5299 28.1175 26.7005C28.8204 25.6731 29.3736 24.7296 30.0543 23.7032C30.9058 21.6069 30.8426 19.7422 31.1187 18.4226C31.4601 16.0319 30.6508 14.1046 29.97 12.0508C28.9268 9.6612 27.5432 7.88045 25.1164 6.49707C18.9856 2.6827 10.6419 3.75051 6.66186 9.45189C6.64078 9.45189 6.5333 9.59851 6.32044 9.89176C6.59758 8.71876 7.30044 8.02707 8.00224 7.35557C10.0887 5.63751 12.5155 4.27432 15.2827 3.60495C18.4124 3.2692 21.5189 3.60495 24.3071 4.96707C28.48 7.35557 31.2472 11.1083 31.949 15.5496V19.6583C31.0765 26.386 25.3293 31.4998 18.7095 32.1915ZM34.0144 16.8915C33.8648 7.04214 24.1375 0.398324 14.6652 1.74026C11.898 2.43089 8.87476 3.81426 6.72508 5.7427C5.68186 6.43332 5.19291 7.71257 4.14968 8.73895C-0.0232182 14.8802 0.701771 22.7395 5.89472 27.5186C6.56083 28.1826 7.2721 28.799 8.02332 29.3631C3.68181 26.7419 1.72287 22.7799 1.04214 17.9615C1.04214 16.2423 1.3825 14.5444 1.74394 12.8264C4.17181 5.30176 11.8127 -0.167989 20.1363 1.21539C21.5199 1.55114 22.9035 1.90707 24.3092 2.24282C26.0543 2.93345 27.7782 3.96089 29.1618 5.32407C30.5454 6.68514 31.5886 8.40426 32.6319 10.1011C33.3337 11.4643 33.6751 13.1823 34.0154 14.5444C34.0787 15.3201 34.0787 16.1169 34.0154 16.8926L34.0144 16.8915Z" fill="#101010"/>
<path fill-rule="evenodd" clip-rule="evenodd" d="M25.3723 17.0391C25.3723 21.2732 21.8391 24.7104 17.4754 24.7104C13.1128 24.7104 9.57852 21.2732 9.57852 17.0391C9.57852 12.8061 13.1118 9.36893 17.4754 9.36893C21.8391 9.36893 25.3723 12.8061 25.3723 17.0402V17.0391Z" fill="white"/>
<path fill-rule="evenodd" clip-rule="evenodd" d="M25.4155 15.7397C25.3091 15.1532 25.1384 14.6921 24.9687 14.0429C24.287 12.617 23.2869 11.5067 21.9666 10.5632C17.0286 7.27368 10.2382 10.4378 9.51531 16.0552C9.23922 18.2769 10.0264 20.4147 11.431 22.0499C11.0053 21.6089 10.5375 21.1489 10.2182 20.624L10.176 20.6665C10.2182 20.7919 10.3889 20.8758 10.431 21.0012C10.431 21.0012 10.2603 21.0012 10.3035 20.9799C10.176 20.8344 10.2824 21.0649 10.4732 21.3784C10.6439 21.6929 10.8567 21.9872 11.1118 22.2592C11.4743 22.6576 11.8568 23.0136 12.4953 23.4959C13.4332 23.9772 14.2625 24.6062 15.3479 24.8995C15.6461 24.9845 15.9865 25.0674 16.3279 25.1301C16.6893 25.1938 17.0297 25.2151 17.4133 25.2151C17.7747 25.2151 18.1583 25.1726 18.6261 25.0876C19.1086 25.0303 19.5855 24.9325 20.0519 24.7954C21.0936 24.4792 22.0533 23.935 22.8623 23.2016C23.2669 22.8255 23.8423 22.3431 24.288 21.7141C24.6505 21.0022 24.6927 20.6452 24.8634 20.3307C25.033 20.0162 25.2459 19.6603 25.3955 19.1779C25.5175 18.6057 25.5887 18.0236 25.6084 17.4386C25.5873 16.8521 25.5452 16.2858 25.4166 15.7407L25.4155 15.7397ZM20.349 11.8424C21.073 12.2611 21.1794 12.3237 20.7958 12.0517C21.3501 12.1771 21.6905 12.4916 22.0309 12.8061C22.8612 13.7496 23.542 14.8599 23.8823 16.1381C24.0741 17.5842 23.9245 19.0302 23.308 20.3095C22.2016 22.2581 20.4344 23.5576 18.3269 23.9135C18.0929 23.9135 17.8379 23.9135 17.6029 23.9347C18.1994 23.8296 18.5829 23.4524 19.6683 23.0539C20.838 22.6353 22.1584 20.6867 22.798 19.5541C24.6705 16.4728 22.4566 13.6232 20.349 11.8424ZM16.3479 23.9549C13.1129 23.6202 10.6218 20.9587 10.2814 17.8774C10.5786 19.5966 11.6007 20.9162 12.9843 22.0902C13.4743 22.4047 14.1972 22.8446 14.6872 23.1591C15.5175 23.4736 16.0065 23.8094 16.8158 23.956H16.3479V23.9549ZM25.053 18.3598C24.9055 19.0101 24.7559 19.638 24.6063 20.2882C24.287 21.0851 23.8191 21.9022 23.1805 22.5514C22.5419 23.2016 21.7326 23.7042 20.9244 24.1866C20.2858 24.5212 19.4765 24.6891 18.8169 24.8559C18.4333 24.8984 17.9865 24.7306 17.6029 24.7104C22.3291 24.5839 25.5641 20.1629 24.8623 15.7822C24.5209 14.504 23.8402 13.3926 23.0098 12.2823C22.6694 11.7999 22.0087 11.5067 21.5198 11.0243C18.5608 9.15962 14.645 9.53681 12.41 11.9891C12.0966 12.3113 11.8048 12.6542 11.5364 13.0154C12.7293 11.2549 14.645 10.0192 16.9433 9.66218C17.7526 9.64093 18.5829 9.78862 19.3912 9.93524C22.9677 11.0243 25.6284 14.504 25.053 18.3609V18.3598Z" fill="#D7DF23"/>
</svg>
