<svg width="192" height="19" viewBox="0 0 192 19" fill="none" xmlns="http://www.w3.org/2000/svg">
<path d="M0.624023 11.76C0.624023 13.608 1.17602 15.168 2.30402 16.44C3.43202 17.688 4.84802 18.312 6.52802 18.312C7.82402 18.312 8.97602 17.928 9.98402 17.136V18H13.56V0H9.98402V6.36C8.95202 5.592 7.80002 5.208 6.52802 5.208C4.84802 5.208 3.43202 5.832 2.30402 7.08C1.17602 8.328 0.624023 9.888 0.624023 11.76ZM7.15202 8.76C7.92002 8.76 8.56802 9.048 9.12002 9.624C9.67202 10.2 9.93602 10.896 9.93602 11.736C9.93602 13.464 8.68802 14.76 7.15202 14.76C5.59202 14.76 4.36802 13.464 4.36802 11.736C4.36802 10.08 5.59202 8.76 7.15202 8.76Z" fill="white"/>
<path d="M16.8981 16.44C18.1701 17.688 19.7781 18.312 21.6741 18.312C23.5701 18.312 25.1541 17.688 26.4261 16.44C27.6981 15.168 28.3461 13.608 28.3461 11.76C28.3461 9.912 27.6981 8.352 26.4261 7.104C25.1541 5.832 23.5701 5.208 21.6741 5.208C19.7781 5.208 18.1701 5.832 16.8981 7.104C15.6261 8.352 15.0021 9.912 15.0021 11.76C15.0021 13.608 15.6261 15.168 16.8981 16.44ZM21.6741 14.76C20.8341 14.76 20.1381 14.472 19.5861 13.896C19.0341 13.32 18.7461 12.6 18.7461 11.76C18.7461 10.92 19.0341 10.2 19.5861 9.624C20.1381 9.048 20.8341 8.76 21.6741 8.76C22.4901 8.76 23.1861 9.048 23.7381 9.648C24.3142 10.224 24.6021 10.92 24.6021 11.76C24.6021 12.6 24.3142 13.296 23.7381 13.896C23.1861 14.472 22.4901 14.76 21.6741 14.76Z" fill="white"/>
<path d="M33.3643 18V10.8C33.3643 9.528 34.3003 8.544 35.4763 8.544C36.6523 8.544 37.5643 9.528 37.5643 10.8V18H41.1643V10.8C41.1643 9.528 42.1003 8.544 43.2763 8.544C44.4523 8.544 45.3643 9.528 45.3643 10.8V18H48.9643V9.84C48.9643 8.52 48.5083 7.44 47.5723 6.552C46.6363 5.664 45.5083 5.208 44.1403 5.208C42.4603 5.208 41.2123 5.856 40.3963 7.128C39.5083 5.856 38.2363 5.208 36.6043 5.208C35.2843 5.208 34.2043 5.688 33.3643 6.648V5.52H29.7643V18H33.3643Z" fill="white"/>
<path d="M50.3912 11.76C50.3912 13.608 50.9432 15.168 52.0712 16.44C53.1992 17.688 54.6152 18.312 56.2952 18.312C57.5912 18.312 58.7432 17.928 59.7512 17.136V18H63.3272V5.52H59.7512V6.36C58.7192 5.592 57.5672 5.208 56.2952 5.208C54.6152 5.208 53.1992 5.832 52.0712 7.08C50.9432 8.328 50.3912 9.888 50.3912 11.76ZM56.9192 8.76C57.6872 8.76 58.3352 9.048 58.8872 9.624C59.4392 10.2 59.7032 10.896 59.7032 11.736C59.7032 13.464 58.4552 14.76 56.9192 14.76C55.3592 14.76 54.1352 13.464 54.1352 11.736C54.1352 10.08 55.3592 8.76 56.9192 8.76Z" fill="white"/>
<path d="M68.7533 18V5.52H65.1533V18H68.7533ZM65.3453 4.008C65.7773 4.416 66.3053 4.632 66.9533 4.632C67.6013 4.632 68.1293 4.416 68.5373 4.008C68.9693 3.6 69.1853 3.072 69.1853 2.424C69.1853 1.776 68.9693 1.248 68.5373 0.840001C68.1293 0.432 67.6013 0.216 66.9533 0.216C66.3053 0.216 65.7773 0.432 65.3453 0.840001C64.9373 1.248 64.7213 1.776 64.7213 2.424C64.7213 3.072 64.9373 3.6 65.3453 4.008Z" fill="white"/>
<path d="M70.5783 18H74.1783V10.944C74.1783 9.576 75.1623 8.544 76.4823 8.544C77.8023 8.544 78.7623 9.576 78.7623 10.944V18H82.3623V9.984C82.3623 8.616 81.9063 7.488 80.9703 6.576C80.0583 5.664 78.9303 5.208 77.5863 5.208C76.1463 5.208 75.0183 5.736 74.1783 6.792V5.52H70.5783V18Z" fill="white"/>
<path d="M84.495 13.344H91.455V10.152H84.495V13.344Z" fill="white"/>
<path d="M93.5924 18H97.1924V10.944C97.1924 9.576 98.1764 8.544 99.4964 8.544C100.816 8.544 101.776 9.576 101.776 10.944V18H105.376V9.984C105.376 8.616 104.92 7.488 103.984 6.576C103.072 5.664 101.944 5.208 100.6 5.208C99.1604 5.208 98.0324 5.736 97.1924 6.792V5.52H93.5924V18Z" fill="white"/>
<path d="M106.813 11.76C106.813 13.608 107.365 15.168 108.493 16.44C109.621 17.688 111.037 18.312 112.717 18.312C114.013 18.312 115.165 17.928 116.173 17.136V18H119.749V5.52H116.173V6.36C115.141 5.592 113.989 5.208 112.717 5.208C111.037 5.208 109.621 5.832 108.493 7.08C107.365 8.328 106.813 9.888 106.813 11.76ZM113.341 8.76C114.109 8.76 114.757 9.048 115.309 9.624C115.861 10.2 116.125 10.896 116.125 11.736C116.125 13.464 114.877 14.76 113.341 14.76C111.781 14.76 110.557 13.464 110.557 11.736C110.557 10.08 111.781 8.76 113.341 8.76Z" fill="white"/>
<path d="M125.175 18V10.8C125.175 9.528 126.111 8.544 127.287 8.544C128.463 8.544 129.375 9.528 129.375 10.8V18H132.975V10.8C132.975 9.528 133.911 8.544 135.087 8.544C136.263 8.544 137.175 9.528 137.175 10.8V18H140.775V9.84C140.775 8.52 140.319 7.44 139.383 6.552C138.447 5.664 137.319 5.208 135.951 5.208C134.271 5.208 133.023 5.856 132.207 7.128C131.319 5.856 130.047 5.208 128.415 5.208C127.095 5.208 126.015 5.688 125.175 6.648V5.52H121.575V18H125.175Z" fill="white"/>
<path d="M155.282 13.056C155.378 12.648 155.426 12.216 155.426 11.76C155.426 9.912 154.802 8.352 153.53 7.104C152.258 5.832 150.698 5.208 148.826 5.208C146.93 5.208 145.37 5.832 144.098 7.104C142.826 8.352 142.202 9.912 142.202 11.76C142.202 13.632 142.85 15.192 144.146 16.44C145.442 17.688 147.074 18.312 149.018 18.312C151.682 18.312 153.866 17.016 154.994 14.928L151.514 14.136C150.89 14.88 150.074 15.24 149.042 15.24C147.578 15.24 146.402 14.376 145.994 13.056H155.282ZM146.018 10.392C146.426 9.12 147.554 8.28 148.826 8.28C150.17 8.28 151.298 9.12 151.754 10.392H146.018Z" fill="white"/>
<path d="M166.451 8.616C166.139 6.48 164.363 5.208 161.459 5.208C158.411 5.208 156.395 6.456 156.395 9.216C156.395 11.064 157.355 12.168 159.683 12.816L161.963 13.488C162.803 13.728 163.211 14.04 163.211 14.448C163.211 15.024 162.539 15.36 161.579 15.36C160.403 15.36 159.683 14.952 159.443 14.112L156.131 14.568C156.491 16.944 158.363 18.312 161.507 18.312C164.603 18.312 166.643 16.92 166.643 14.304C166.643 12.408 165.611 11.256 163.091 10.464L160.859 9.744C160.211 9.504 159.875 9.216 159.875 8.904C159.875 8.352 160.355 8.088 161.291 8.088C162.323 8.088 162.947 8.448 163.163 9.144L166.451 8.616Z" fill="white"/>
<path d="M169.694 14.232C168.542 14.232 167.678 15.096 167.678 16.272C167.678 17.448 168.542 18.312 169.694 18.312C170.87 18.312 171.758 17.448 171.758 16.272C171.758 15.096 170.87 14.232 169.694 14.232Z" fill="#b5ed3d"/>
<path d="M172.516 11.76C172.516 13.608 173.068 15.168 174.196 16.44C175.324 17.688 176.74 18.312 178.42 18.312C179.716 18.312 180.868 17.928 181.876 17.136V18H185.452V5.52H181.876V6.36C180.844 5.592 179.692 5.208 178.42 5.208C176.74 5.208 175.324 5.832 174.196 7.08C173.068 8.328 172.516 9.888 172.516 11.76ZM179.044 8.76C179.812 8.76 180.46 9.048 181.012 9.624C181.564 10.2 181.828 10.896 181.828 11.736C181.828 13.464 180.58 14.76 179.044 14.76C177.484 14.76 176.26 13.464 176.26 11.736C176.26 10.08 177.484 8.76 179.044 8.76Z" fill="#e900ff"/>
<path d="M190.878 18V5.52H187.278V18H190.878ZM187.47 4.008C187.902 4.416 188.43 4.632 189.078 4.632C189.726 4.632 190.254 4.416 190.662 4.008C191.094 3.6 191.31 3.072 191.31 2.424C191.31 1.776 191.094 1.248 190.662 0.840001C190.254 0.432 189.726 0.216 189.078 0.216C188.43 0.216 187.902 0.432 187.47 0.840001C187.062 1.248 186.846 1.776 186.846 2.424C186.846 3.072 187.062 3.6 187.47 4.008Z" fill="#e900ff"/>
</svg>
