<svg width="953" height="932" viewBox="0 0 953 932" fill="none" xmlns="http://www.w3.org/2000/svg">
<path d="M452.484 930.553C203.843 931.051 1.8605 723.496 1.37684 466.931C0.893167 210.366 202.091 2.00104 450.732 1.50211C699.374 1.00318 901.356 208.559 901.84 465.124C902.323 721.689 701.125 930.054 452.484 930.553Z" stroke="#2F5BD1"/>
<path d="M501.376 930.455C252.735 930.954 50.7531 723.398 50.2694 466.833C49.7857 210.268 250.984 1.90338 499.625 1.40445C748.266 0.905519 950.248 208.461 950.732 465.026C951.216 721.591 750.018 929.956 501.376 930.455Z" stroke="#2F5BD1"/>
<path d="M76.7214 721.504L66.107 711.949L65.9456 711.804L65.7407 711.875L52.3841 716.555L61.6578 705.589L61.8001 705.421L61.7312 705.212L57.2019 691.45L67.8163 701.005L67.9777 701.15L68.1827 701.078L81.5392 696.399L72.2655 707.365L72.1232 707.533L72.1921 707.742L76.7214 721.504Z" fill="#A3DC2F" stroke="white" stroke-width="0.76"/>
</svg>
